<?xml version="1.0" encoding="iso-8859-1"?>
<!-- Uploaded to: SVG Repo, www.svgrepo.com, Generator: SVG Repo Mixer Tools -->
<svg height="800px" width="800px" version="1.1" id="Layer_1" xmlns="http://www.w3.org/2000/svg" xmlns:xlink="http://www.w3.org/1999/xlink" 
	 viewBox="0 0 512 512" xml:space="preserve">
<circle style="fill:#E05B49;" cx="256" cy="256" r="256"/>
<path style="opacity:0.1;enable-background:new    ;" d="M256.267,109.376c-0.16-0.053-0.373-0.053-0.533,0l-48.427,13.867
	c-0.693,0.213-0.907,1.067-0.533,1.6c-0.373,0.48-0.16,1.333,0.533,1.547l21.12,6.027c-1.813,3.307-2.987,6.933-3.467,10.773
	c-0.267,1.76,0.427,3.467,1.707,4.64c-0.053,0.213-0.16,0.48-0.16,0.747c-1.493-0.907-2.987-1.28-4.373-0.8
	c-3.253,1.173-4.427,6.453-2.56,11.84c1.547,4.427,4.64,7.467,7.573,7.787c0.107,0.693,0.32,1.387,0.48,2.027l-0.16,1.013h0.427
	c1.387,4.96,3.413,9.707,5.973,13.92v11.04l-0.48-0.213l-5.067,1.973l-18.08,7.04l-5.6,2.187c-6.187,2.56-10.987,7.52-13.387,13.76
	l-6.4,18.88h-15.68v20.587l12.795,12.795l17.339,130.245L304.08,507.429c96.784-18.4,174.251-91.237,199.307-185.493
	L304.693,123.243L256.267,109.376z"/>
<path style="fill:#F6C358;" d="M256,212.117l1.168-0.635l21.397-10.747v-21.701c-5.616,9.104-13.632,15.536-22.565,15.536
	c-8.933,0-16.955-6.432-22.565-15.536v21.701l21.397,10.747L256,212.117z"/>
<polygon style="fill:#E1E6E9;" points="254.853,239.003 256,239.003 257.147,239.003 283.685,197.147 269.84,218.981 
	257.147,206.149 256,206.784 254.853,206.149 242.16,218.981 228.315,197.147 "/>
<polygon style="fill:#64798A;" points="254.853,239.003 228.315,197.147 210.224,204.197 246.059,239.003 "/>
<path style="fill:#3A556A;" d="M210.224,204.197l-5.589,2.181c-6.155,2.56-10.981,7.541-13.355,13.771l-6.437,18.853h61.221
	L210.224,204.197z"/>
<polygon style="fill:#FFFFFF;" points="242.16,218.981 254.645,206.363 254.853,206.149 233.84,195.403 233.387,195.168 
	228.315,197.147 "/>
<polygon style="fill:#64798A;" points="257.147,239.003 265.941,239.003 301.776,204.197 283.685,197.147 "/>
<path style="fill:#3A556A;" d="M327.157,239.003l-6.437-18.853c-2.373-6.229-7.2-11.211-13.355-13.771l-5.589-2.181l-35.84,34.805
	H327.157z"/>
<polygon style="fill:#FFFFFF;" points="257.355,206.363 269.84,218.981 283.685,197.147 278.613,195.168 278.16,195.403 
	257.147,206.149 "/>
<g>
	<path style="fill:#F6C358;" d="M284.875,167.424c2.891-0.336,5.989-3.381,7.536-7.792c1.888-5.381,0.736-10.683-2.565-11.84
		c-1.365-0.48-2.875-0.139-4.32,0.757c0.416,2.32,0.64,4.8,0.64,7.456C286.16,159.787,285.701,163.643,284.875,167.424z"/>
	<path style="fill:#F6C358;" d="M226.48,148.549c-1.445-0.901-2.96-1.237-4.325-0.757c-3.301,1.157-4.453,6.459-2.565,11.84
		c1.547,4.411,4.645,7.456,7.536,7.792c-0.832-3.781-1.285-7.637-1.285-11.419C225.84,153.355,226.064,150.869,226.48,148.549z"/>
</g>
<g>
	<path style="fill:#FCD462;" d="M256,199.904c8.773,0,16.645-6.437,22.16-15.536c3.051-5.04,5.381-10.88,6.715-16.944
		c0.832-3.781,1.291-7.637,1.291-11.419c0-2.651-0.224-5.136-0.64-7.456c-0.043-0.24-0.107-0.459-0.155-0.693
		c-0.416,0.373-0.891,0.693-1.424,0.928c-9.493,4.208-18.576,7.296-27.115,8.869c-0.613,0.112-1.243,0.117-1.856,0.005
		c-5.536-1.008-11.456-2.869-17.579-5.173l3.28,17.947h-12.784c1.376,4.981,3.408,9.733,5.952,13.931
		C239.355,193.472,247.227,199.904,256,199.904z"/>
	<path style="fill:#FCD462;" d="M230.8,152.117c-0.747-0.725-1.189-1.712-1.328-2.8c-0.459-0.197-0.907-0.368-1.365-0.565
		c-0.544-0.235-1.035-0.555-1.456-0.939c-0.048,0.251-0.117,0.48-0.165,0.736c-0.416,2.32-0.64,4.8-0.64,7.456
		c0,3.781,0.459,7.637,1.285,11.419c0.149,0.677,0.331,1.344,0.507,2.016L230.8,152.117z"/>
</g>
<g>
	<path style="fill:#64798A;" d="M256.277,140.272c-0.181,0.053-0.379,0.053-0.56,0l-19.867-5.701v9.835
		c1.707,0.709,2.907,2.379,2.907,4.341c0,1.328-0.56,2.517-1.445,3.371l0.069,0.368c6.123,2.304,12.043,4.165,17.579,5.173
		c0.613,0.112,1.243,0.112,1.856-0.005c8.539-1.573,17.627-4.661,27.115-8.869c0.533-0.235,1.008-0.555,1.424-0.928
		c1.259-1.141,1.92-2.843,1.696-4.597c-0.496-3.877-1.701-7.525-3.477-10.827L256.277,140.272z"/>
	<path style="fill:#64798A;" d="M228.101,148.752c0.459,0.197,0.907,0.368,1.365,0.565c-0.027-0.197-0.117-0.368-0.117-0.571
		c0-1.963,1.205-3.637,2.907-4.341v-10.864l-3.856-1.104c-1.771,3.285-2.971,6.923-3.467,10.779
		c-0.224,1.76,0.443,3.467,1.707,4.608C227.067,148.203,227.557,148.517,228.101,148.752z"/>
</g>
<g>
	<path style="fill:#2F4859;" d="M304.677,125.211l-48.4,13.893c-0.181,0.053-0.379,0.053-0.56,0l-18.811-5.397l-1.056,0.411v0.459
		l19.867,5.701c0.181,0.053,0.379,0.053,0.56,0l27.307-7.835l21.093-6.053c0.731-0.208,0.912-1.04,0.549-1.557
		C305.104,124.997,304.923,125.136,304.677,125.211z"/>
	<path style="fill:#2F4859;" d="M232.261,132.885c0-0.171,0.101-0.315,0.149-0.475l-25.088-7.2
		c-0.245-0.069-0.427-0.213-0.549-0.384c-0.363,0.523-0.181,1.349,0.549,1.557l21.083,6.053l3.856,1.104V132.885z"/>
</g>
<path style="fill:#3A556A;" d="M207.323,125.211l25.088,7.2c0.155-0.528,0.469-0.997,0.997-1.2l17.963-6.981
	c0.005-1.653,2.075-2.987,4.629-2.987c2.555,0,4.629,1.339,4.629,2.997c0,1.659-2.075,2.992-4.629,2.992
	c-0.645,0-1.259-0.085-1.813-0.24l-17.275,6.709l18.811,5.397c0.181,0.053,0.379,0.053,0.56,0l48.4-13.893
	c0.245-0.069,0.427-0.213,0.549-0.384c0.363-0.523,0.181-1.349-0.549-1.557l-48.4-13.893c-0.181-0.053-0.379-0.053-0.56,0
	l-48.4,13.893c-0.731,0.208-0.917,1.04-0.549,1.557C206.896,124.997,207.077,125.136,207.323,125.211z"/>
<path style="fill:#E56353;" d="M235.856,144.405v-9.835v-0.459l1.056-0.411l17.275-6.709c-1.653-0.459-2.816-1.515-2.816-2.757
	v-0.005l-17.963,6.981c-0.528,0.203-0.848,0.672-0.997,1.2c-0.048,0.16-0.149,0.299-0.149,0.475v0.656v10.864
	c0.555-0.229,1.157-0.363,1.797-0.363C234.693,144.043,235.301,144.176,235.856,144.405z"/>
<path style="fill:#2F4859;" d="M254.187,126.992c0.555,0.155,1.168,0.24,1.813,0.24c2.555,0,4.629-1.339,4.629-2.997
	s-2.075-2.992-4.629-2.992c-2.555,0-4.624,1.339-4.629,2.987v0.005C251.371,125.472,252.533,126.533,254.187,126.992z"/>
<path style="fill:#E56353;" d="M237.387,152.485l-0.069-0.368c-0.848,0.816-1.989,1.333-3.259,1.333
	c-1.269,0-2.416-0.517-3.259-1.333l-3.168,17.323l-0.181,0.992h0.443h12.779L237.387,152.485z"/>
<path style="fill:#D15241;" d="M238.763,148.747c0-1.963-1.2-3.637-2.907-4.341c-0.555-0.229-1.163-0.363-1.797-0.363
	c-0.64,0-1.243,0.133-1.797,0.363c-1.707,0.704-2.907,2.379-2.907,4.341c0,0.203,0.091,0.373,0.117,0.571
	c0.139,1.088,0.581,2.075,1.328,2.8c0.848,0.816,1.989,1.333,3.259,1.333c1.269,0,2.416-0.517,3.259-1.333
	C238.203,151.264,238.763,150.075,238.763,148.747z"/>
<polygon style="fill:#FFFFFF;" points="327.157,239.003 265.941,239.003 257.147,239.003 256,239.003 254.853,239.003 
	246.059,239.003 184.843,239.003 169.189,239.003 169.189,259.616 180.245,259.616 331.755,259.616 342.811,259.616 
	342.811,239.003 "/>
<polygon style="fill:#EBF0F3;" points="199.301,402.667 312.693,402.667 331.755,259.616 180.245,259.616 "/>
</svg>